<?xml version="1.0" encoding="UTF-8"?>
<svg xmlns="http://www.w3.org/2000/svg" xmlns:xlink="http://www.w3.org/1999/xlink" viewBox="0 0 30 30" width="30px" height="30px">
<g id="surface111437780">
<path style=" stroke:none;fill-rule:nonzero;fill:rgb(12.156863%,14.901961%,19.607843%);fill-opacity:1;" d="M 15 3 C 12.054688 3 9.328125 4.089844 7.253906 5.835938 C 6.980469 6.066406 6.847656 6.425781 6.90625 6.78125 C 6.96875 7.132812 7.21875 7.425781 7.554688 7.546875 C 7.894531 7.667969 8.273438 7.601562 8.546875 7.367188 C 10.269531 5.910156 12.546875 5 15 5 C 20.226562 5 24.457031 8.914062 24.953125 14 L 22 14 L 26 20 L 30 14 L 26.949219 14 C 26.441406 7.835938 21.296875 3 15 3 Z M 4.300781 9 L 0.300781 15 L 3 15 C 3 21.636719 8.363281 27 15 27 C 17.945312 27 20.671875 25.910156 22.746094 24.164062 C 23.019531 23.933594 23.152344 23.574219 23.09375 23.21875 C 23.03125 22.867188 22.78125 22.574219 22.445312 22.453125 C 22.105469 22.332031 21.726562 22.398438 21.457031 22.632812 C 19.730469 24.089844 17.453125 25 15 25 C 9.433594 25 5 20.566406 5 15 L 8.300781 15 Z M 4.300781 9 "/>
</g>
</svg>
